<mxfile host="app.diagrams.net" agent="Mozilla/5.0 (Windows NT 10.0; Win64; x64) AppleWebKit/537.36 (KHTML, like Gecko) Chrome/134.0.0.0 Safari/537.36" version="26.1.1">
  <diagram id="prtHgNgQTEPvFCAcTncT" name="Page-1">
    <mxGraphModel dx="2607" dy="2664" grid="1" gridSize="10" guides="1" tooltips="1" connect="1" arrows="1" fold="1" page="1" pageScale="1" pageWidth="827" pageHeight="1169" math="0" shadow="0">
      <root>
        <mxCell id="0" />
        <mxCell id="1" parent="0" />
        <mxCell id="EsK8FO15ryKcE3pmCF22-37" style="edgeStyle=orthogonalEdgeStyle;rounded=0;orthogonalLoop=1;jettySize=auto;html=1;entryX=0;entryY=0.5;entryDx=0;entryDy=0;fillColor=#ffe6cc;strokeColor=#d79b00;exitX=1;exitY=0.5;exitDx=0;exitDy=0;" parent="1" source="EsK8FO15ryKcE3pmCF22-21" target="EsK8FO15ryKcE3pmCF22-24" edge="1">
          <mxGeometry relative="1" as="geometry">
            <mxPoint x="510" y="410" as="sourcePoint" />
          </mxGeometry>
        </mxCell>
        <mxCell id="EsK8FO15ryKcE3pmCF22-66" value="Merge into Staging&lt;div&gt;as Needed with Multiple Features&lt;/div&gt;" style="edgeLabel;html=1;align=center;verticalAlign=middle;resizable=0;points=[];" parent="EsK8FO15ryKcE3pmCF22-37" vertex="1" connectable="0">
          <mxGeometry x="0.0561" y="1" relative="1" as="geometry">
            <mxPoint as="offset" />
          </mxGeometry>
        </mxCell>
        <mxCell id="EsK8FO15ryKcE3pmCF22-41" style="edgeStyle=orthogonalEdgeStyle;rounded=0;orthogonalLoop=1;jettySize=auto;html=1;fillColor=#0050ef;strokeColor=#001DBC;entryX=1;entryY=0.5;entryDx=0;entryDy=0;exitX=0.5;exitY=0;exitDx=0;exitDy=0;" parent="1" source="EsK8FO15ryKcE3pmCF22-24" target="EsK8FO15ryKcE3pmCF22-38" edge="1">
          <mxGeometry relative="1" as="geometry">
            <mxPoint x="700" y="220" as="targetPoint" />
            <mxPoint x="610" y="570" as="sourcePoint" />
          </mxGeometry>
        </mxCell>
        <mxCell id="EsK8FO15ryKcE3pmCF22-67" value="PR" style="edgeLabel;html=1;align=center;verticalAlign=middle;resizable=0;points=[];" parent="EsK8FO15ryKcE3pmCF22-41" vertex="1" connectable="0">
          <mxGeometry x="-0.208" y="1" relative="1" as="geometry">
            <mxPoint x="1" y="-9" as="offset" />
          </mxGeometry>
        </mxCell>
        <mxCell id="EsK8FO15ryKcE3pmCF22-42" style="edgeStyle=orthogonalEdgeStyle;rounded=0;orthogonalLoop=1;jettySize=auto;html=1;entryX=0.5;entryY=0;entryDx=0;entryDy=0;fillColor=#ffe6cc;strokeColor=#d79b00;exitX=0;exitY=0.5;exitDx=0;exitDy=0;" parent="1" source="EsK8FO15ryKcE3pmCF22-38" target="EsK8FO15ryKcE3pmCF22-21" edge="1">
          <mxGeometry relative="1" as="geometry">
            <mxPoint x="420" y="220" as="targetPoint" />
            <Array as="points">
              <mxPoint x="420" y="220" />
            </Array>
            <mxPoint x="550" y="230" as="sourcePoint" />
          </mxGeometry>
        </mxCell>
        <mxCell id="EsK8FO15ryKcE3pmCF22-68" value="Merge into Develop" style="edgeLabel;html=1;align=center;verticalAlign=middle;resizable=0;points=[];" parent="EsK8FO15ryKcE3pmCF22-42" vertex="1" connectable="0">
          <mxGeometry x="0.2758" y="-2" relative="1" as="geometry">
            <mxPoint x="2" y="-34" as="offset" />
          </mxGeometry>
        </mxCell>
        <object label="Once a new release has been added to Production, update develop with what is now in main" id="EsK8FO15ryKcE3pmCF22-72">
          <mxCell style="text;html=1;align=left;verticalAlign=top;whiteSpace=wrap;rounded=0;fillColor=#ffe6cc;strokeColor=#d79b00;fontSize=8;metaEdit=1;" parent="1" vertex="1">
            <mxGeometry x="360" y="260" width="120" height="40" as="geometry" />
          </mxCell>
        </object>
        <mxCell id="EsK8FO15ryKcE3pmCF22-73" value="Staging is used to upload and deploy new builds to the Testing tracks" style="text;html=1;align=left;verticalAlign=top;whiteSpace=wrap;rounded=0;fontSize=8;fillColor=#dae8fc;strokeColor=#6c8ebf;" parent="1" vertex="1">
          <mxGeometry x="1010" y="350" width="120" height="40" as="geometry" />
        </mxCell>
        <object label="Develop is used for any active development, such as creating new features or fixing bugs." id="EsK8FO15ryKcE3pmCF22-74">
          <mxCell style="text;html=1;align=left;verticalAlign=top;whiteSpace=wrap;rounded=0;fillColor=#dae8fc;strokeColor=#6c8ebf;fontSize=8;metaEdit=1;" parent="1" vertex="1">
            <mxGeometry x="440" y="350" width="120" height="40" as="geometry" />
          </mxCell>
        </object>
        <mxCell id="JWAQEmHxJwl-mEr6tWKa-1" value="On Merge: Staging into Main" style="swimlane;whiteSpace=wrap;html=1;startSize=40;" parent="1" vertex="1">
          <mxGeometry x="580" width="160" height="160" as="geometry" />
        </mxCell>
        <mxCell id="QbTUfAHfLigSghjIeHCX-56" value="Build" style="text;strokeColor=none;fillColor=none;align=left;verticalAlign=middle;spacingLeft=4;spacingRight=4;overflow=hidden;points=[[0,0.5],[1,0.5]];portConstraint=eastwest;rotatable=0;whiteSpace=wrap;html=1;fontSize=8;" vertex="1" parent="JWAQEmHxJwl-mEr6tWKa-1">
          <mxGeometry y="70" width="140" height="30" as="geometry" />
        </mxCell>
        <mxCell id="QbTUfAHfLigSghjIeHCX-57" value="Production Track" style="text;strokeColor=none;fillColor=none;align=left;verticalAlign=middle;spacingLeft=4;spacingRight=4;overflow=hidden;points=[[0,0.5],[1,0.5]];portConstraint=eastwest;rotatable=0;whiteSpace=wrap;html=1;fontSize=8;" vertex="1" parent="JWAQEmHxJwl-mEr6tWKa-1">
          <mxGeometry y="100" width="140" height="30" as="geometry" />
        </mxCell>
        <mxCell id="QbTUfAHfLigSghjIeHCX-58" value="Version Bump - Major? - Remove RC + Build Nr" style="text;strokeColor=none;fillColor=none;align=left;verticalAlign=middle;spacingLeft=4;spacingRight=4;overflow=hidden;points=[[0,0.5],[1,0.5]];portConstraint=eastwest;rotatable=0;whiteSpace=wrap;html=1;fontSize=8;" vertex="1" parent="JWAQEmHxJwl-mEr6tWKa-1">
          <mxGeometry y="40" width="140" height="30" as="geometry" />
        </mxCell>
        <mxCell id="JWAQEmHxJwl-mEr6tWKa-2" value="" style="endArrow=classic;startArrow=classic;html=1;rounded=0;entryX=0.5;entryY=1;entryDx=0;entryDy=0;exitX=0.5;exitY=0;exitDx=0;exitDy=0;" parent="1" source="EsK8FO15ryKcE3pmCF22-38" target="JWAQEmHxJwl-mEr6tWKa-1" edge="1">
          <mxGeometry width="50" height="50" relative="1" as="geometry">
            <mxPoint x="830" y="245" as="sourcePoint" />
            <mxPoint x="880" y="195" as="targetPoint" />
          </mxGeometry>
        </mxCell>
        <mxCell id="JWAQEmHxJwl-mEr6tWKa-3" value="On PR: Feature into Develop" style="swimlane;whiteSpace=wrap;html=1;startSize=40;" parent="1" vertex="1">
          <mxGeometry x="80" y="520" width="160" height="200" as="geometry">
            <mxRectangle x="-90" y="480" width="190" height="30" as="alternateBounds" />
          </mxGeometry>
        </mxCell>
        <mxCell id="JWAQEmHxJwl-mEr6tWKa-21" value="Linting" style="text;strokeColor=none;fillColor=none;align=left;verticalAlign=middle;spacingLeft=4;spacingRight=4;overflow=hidden;points=[[0,0.5],[1,0.5]];portConstraint=eastwest;rotatable=0;whiteSpace=wrap;html=1;fontSize=8;" parent="JWAQEmHxJwl-mEr6tWKa-3" vertex="1">
          <mxGeometry y="40" width="140" height="30" as="geometry" />
        </mxCell>
        <mxCell id="JWAQEmHxJwl-mEr6tWKa-22" value="Tests" style="text;strokeColor=none;fillColor=none;align=left;verticalAlign=middle;spacingLeft=4;spacingRight=4;overflow=hidden;points=[[0,0.5],[1,0.5]];portConstraint=eastwest;rotatable=0;whiteSpace=wrap;html=1;fontSize=8;" parent="JWAQEmHxJwl-mEr6tWKa-3" vertex="1">
          <mxGeometry y="70" width="140" height="30" as="geometry" />
        </mxCell>
        <mxCell id="JWAQEmHxJwl-mEr6tWKa-23" value="Build, without Firebase" style="text;strokeColor=none;fillColor=none;align=left;verticalAlign=middle;spacingLeft=4;spacingRight=4;overflow=hidden;points=[[0,0.5],[1,0.5]];portConstraint=eastwest;rotatable=0;whiteSpace=wrap;html=1;fontSize=8;" parent="JWAQEmHxJwl-mEr6tWKa-3" vertex="1">
          <mxGeometry y="130" width="140" height="30" as="geometry" />
        </mxCell>
        <mxCell id="JWAQEmHxJwl-mEr6tWKa-24" value="SonarCloud?" style="text;strokeColor=none;fillColor=none;align=left;verticalAlign=middle;spacingLeft=4;spacingRight=4;overflow=hidden;points=[[0,0.5],[1,0.5]];portConstraint=eastwest;rotatable=0;whiteSpace=wrap;html=1;fontSize=8;" parent="JWAQEmHxJwl-mEr6tWKa-3" vertex="1">
          <mxGeometry y="160" width="140" height="30" as="geometry" />
        </mxCell>
        <mxCell id="JWAQEmHxJwl-mEr6tWKa-83" value="Version Bump - Build Nr" style="text;strokeColor=none;fillColor=none;align=left;verticalAlign=middle;spacingLeft=4;spacingRight=4;overflow=hidden;points=[[0,0.5],[1,0.5]];portConstraint=eastwest;rotatable=0;whiteSpace=wrap;html=1;fontSize=8;" parent="JWAQEmHxJwl-mEr6tWKa-3" vertex="1">
          <mxGeometry y="100" width="140" height="30" as="geometry" />
        </mxCell>
        <mxCell id="JWAQEmHxJwl-mEr6tWKa-5" value="" style="endArrow=classic;startArrow=classic;html=1;rounded=0;entryX=0;entryY=1;entryDx=0;entryDy=0;exitX=1;exitY=0;exitDx=0;exitDy=0;" parent="1" source="JWAQEmHxJwl-mEr6tWKa-3" target="EsK8FO15ryKcE3pmCF22-60" edge="1">
          <mxGeometry width="50" height="50" relative="1" as="geometry">
            <mxPoint x="300" y="540" as="sourcePoint" />
            <mxPoint x="300" y="530" as="targetPoint" />
          </mxGeometry>
        </mxCell>
        <mxCell id="JWAQEmHxJwl-mEr6tWKa-6" value="On PR: All Fixes into Staging" style="swimlane;whiteSpace=wrap;html=1;startSize=40;" parent="1" vertex="1">
          <mxGeometry x="680" y="560" width="160" height="200" as="geometry" />
        </mxCell>
        <mxCell id="JWAQEmHxJwl-mEr6tWKa-36" value="Linting" style="text;strokeColor=none;fillColor=none;align=left;verticalAlign=middle;spacingLeft=4;spacingRight=4;overflow=hidden;points=[[0,0.5],[1,0.5]];portConstraint=eastwest;rotatable=0;whiteSpace=wrap;html=1;fontSize=8;" parent="JWAQEmHxJwl-mEr6tWKa-6" vertex="1">
          <mxGeometry y="40" width="140" height="30" as="geometry" />
        </mxCell>
        <mxCell id="JWAQEmHxJwl-mEr6tWKa-37" value="Tests" style="text;strokeColor=none;fillColor=none;align=left;verticalAlign=middle;spacingLeft=4;spacingRight=4;overflow=hidden;points=[[0,0.5],[1,0.5]];portConstraint=eastwest;rotatable=0;whiteSpace=wrap;html=1;fontSize=8;" parent="JWAQEmHxJwl-mEr6tWKa-6" vertex="1">
          <mxGeometry y="70" width="140" height="30" as="geometry" />
        </mxCell>
        <mxCell id="JWAQEmHxJwl-mEr6tWKa-38" value="Build" style="text;strokeColor=none;fillColor=none;align=left;verticalAlign=middle;spacingLeft=4;spacingRight=4;overflow=hidden;points=[[0,0.5],[1,0.5]];portConstraint=eastwest;rotatable=0;whiteSpace=wrap;html=1;fontSize=8;" parent="JWAQEmHxJwl-mEr6tWKa-6" vertex="1">
          <mxGeometry y="100" width="140" height="30" as="geometry" />
        </mxCell>
        <mxCell id="JWAQEmHxJwl-mEr6tWKa-39" value="SonarCloud?" style="text;strokeColor=none;fillColor=none;align=left;verticalAlign=middle;spacingLeft=4;spacingRight=4;overflow=hidden;points=[[0,0.5],[1,0.5]];portConstraint=eastwest;rotatable=0;whiteSpace=wrap;html=1;fontSize=8;" parent="JWAQEmHxJwl-mEr6tWKa-6" vertex="1">
          <mxGeometry y="130" width="140" height="30" as="geometry" />
        </mxCell>
        <mxCell id="JWAQEmHxJwl-mEr6tWKa-7" value="" style="endArrow=classic;startArrow=classic;html=1;rounded=0;exitX=0.5;exitY=0;exitDx=0;exitDy=0;entryX=0;entryY=1;entryDx=0;entryDy=0;" parent="1" source="JWAQEmHxJwl-mEr6tWKa-6" target="EsK8FO15ryKcE3pmCF22-62" edge="1">
          <mxGeometry width="50" height="50" relative="1" as="geometry">
            <mxPoint x="760" y="530" as="sourcePoint" />
            <mxPoint x="790" y="520" as="targetPoint" />
          </mxGeometry>
        </mxCell>
        <mxCell id="JWAQEmHxJwl-mEr6tWKa-15" value="On Merge" style="swimlane;whiteSpace=wrap;html=1;" parent="1" vertex="1">
          <mxGeometry x="80" y="280" width="160" height="160" as="geometry" />
        </mxCell>
        <mxCell id="JWAQEmHxJwl-mEr6tWKa-27" value="Build" style="text;strokeColor=none;fillColor=none;align=left;verticalAlign=middle;spacingLeft=4;spacingRight=4;overflow=hidden;points=[[0,0.5],[1,0.5]];portConstraint=eastwest;rotatable=0;whiteSpace=wrap;html=1;fontSize=8;" parent="JWAQEmHxJwl-mEr6tWKa-15" vertex="1">
          <mxGeometry y="60" width="140" height="30" as="geometry" />
        </mxCell>
        <mxCell id="JWAQEmHxJwl-mEr6tWKa-28" value="Firebase" style="text;strokeColor=none;fillColor=none;align=left;verticalAlign=middle;spacingLeft=4;spacingRight=4;overflow=hidden;points=[[0,0.5],[1,0.5]];portConstraint=eastwest;rotatable=0;whiteSpace=wrap;html=1;fontSize=8;" parent="JWAQEmHxJwl-mEr6tWKa-15" vertex="1">
          <mxGeometry y="90" width="140" height="30" as="geometry" />
        </mxCell>
        <mxCell id="JWAQEmHxJwl-mEr6tWKa-84" value="Version Bump - Minor / Patch + Build Nr" style="text;strokeColor=none;fillColor=none;align=left;verticalAlign=middle;spacingLeft=4;spacingRight=4;overflow=hidden;points=[[0,0.5],[1,0.5]];portConstraint=eastwest;rotatable=0;whiteSpace=wrap;html=1;fontSize=8;" parent="JWAQEmHxJwl-mEr6tWKa-15" vertex="1">
          <mxGeometry y="30" width="140" height="30" as="geometry" />
        </mxCell>
        <mxCell id="JWAQEmHxJwl-mEr6tWKa-16" value="" style="endArrow=classic;startArrow=classic;html=1;rounded=0;entryX=1;entryY=1;entryDx=0;entryDy=0;exitX=0;exitY=0.5;exitDx=0;exitDy=0;" parent="1" source="EsK8FO15ryKcE3pmCF22-21" target="JWAQEmHxJwl-mEr6tWKa-15" edge="1">
          <mxGeometry width="50" height="50" relative="1" as="geometry">
            <mxPoint x="100" y="440" as="sourcePoint" />
            <mxPoint x="360" y="435" as="targetPoint" />
          </mxGeometry>
        </mxCell>
        <mxCell id="JWAQEmHxJwl-mEr6tWKa-30" value="" style="rounded=0;orthogonalLoop=1;jettySize=auto;html=1;entryX=0;entryY=0;entryDx=0;entryDy=0;exitX=1;exitY=1;exitDx=0;exitDy=0;" parent="1" source="JWAQEmHxJwl-mEr6tWKa-29" target="EsK8FO15ryKcE3pmCF22-21" edge="1">
          <mxGeometry relative="1" as="geometry" />
        </mxCell>
        <mxCell id="JWAQEmHxJwl-mEr6tWKa-29" value="START" style="ellipse;whiteSpace=wrap;html=1;aspect=fixed;fillColor=#d5e8d4;strokeColor=#82b366;gradientColor=#97d077;" parent="1" vertex="1">
          <mxGeometry x="290" y="330" width="50" height="50" as="geometry" />
        </mxCell>
        <mxCell id="JWAQEmHxJwl-mEr6tWKa-32" value="" style="group" parent="1" vertex="1" connectable="0">
          <mxGeometry x="600" y="200" width="120" height="90" as="geometry" />
        </mxCell>
        <mxCell id="EsK8FO15ryKcE3pmCF22-38" value="Main" style="rounded=1;whiteSpace=wrap;html=1;" parent="JWAQEmHxJwl-mEr6tWKa-32" vertex="1">
          <mxGeometry width="120" height="40" as="geometry" />
        </mxCell>
        <mxCell id="EsK8FO15ryKcE3pmCF22-70" value="This code is representative of what is in Production on the Play Store." style="text;html=1;align=left;verticalAlign=top;whiteSpace=wrap;rounded=0;fontSize=8;fillColor=#dae8fc;strokeColor=#6c8ebf;" parent="JWAQEmHxJwl-mEr6tWKa-32" vertex="1">
          <mxGeometry y="50" width="120" height="40" as="geometry" />
        </mxCell>
        <mxCell id="JWAQEmHxJwl-mEr6tWKa-33" value="" style="group" parent="1" vertex="1" connectable="0">
          <mxGeometry x="840" y="400" width="200" height="160" as="geometry" />
        </mxCell>
        <mxCell id="EsK8FO15ryKcE3pmCF22-48" style="edgeStyle=orthogonalEdgeStyle;rounded=0;orthogonalLoop=1;jettySize=auto;html=1;entryX=0.5;entryY=0;entryDx=0;entryDy=0;fillColor=#d5e8d4;strokeColor=#82b366;" parent="JWAQEmHxJwl-mEr6tWKa-33" edge="1">
          <mxGeometry relative="1" as="geometry">
            <mxPoint x="110" y="40" as="sourcePoint" />
            <mxPoint x="110" y="120" as="targetPoint" />
          </mxGeometry>
        </mxCell>
        <mxCell id="EsK8FO15ryKcE3pmCF22-64" style="edgeStyle=orthogonalEdgeStyle;rounded=0;orthogonalLoop=1;jettySize=auto;html=1;entryX=0;entryY=0.5;entryDx=0;entryDy=0;endArrow=none;startFill=0;fillColor=#d5e8d4;strokeColor=#82b366;" parent="JWAQEmHxJwl-mEr6tWKa-33" source="EsK8FO15ryKcE3pmCF22-24" target="EsK8FO15ryKcE3pmCF22-63" edge="1">
          <mxGeometry relative="1" as="geometry">
            <Array as="points">
              <mxPoint x="110" y="80" />
            </Array>
          </mxGeometry>
        </mxCell>
        <mxCell id="EsK8FO15ryKcE3pmCF22-24" value="Staging" style="rounded=1;whiteSpace=wrap;html=1;collapsible=0;" parent="JWAQEmHxJwl-mEr6tWKa-33" vertex="1">
          <mxGeometry x="40" width="120" height="40" as="geometry">
            <mxRectangle x="560" y="320" width="80" height="30" as="alternateBounds" />
          </mxGeometry>
        </mxCell>
        <mxCell id="EsK8FO15ryKcE3pmCF22-65" style="edgeStyle=orthogonalEdgeStyle;rounded=0;orthogonalLoop=1;jettySize=auto;html=1;entryX=1;entryY=0.5;entryDx=0;entryDy=0;endArrow=none;startFill=0;fillColor=#0050ef;strokeColor=#001DBC;" parent="JWAQEmHxJwl-mEr6tWKa-33" source="EsK8FO15ryKcE3pmCF22-45" target="EsK8FO15ryKcE3pmCF22-62" edge="1">
          <mxGeometry relative="1" as="geometry">
            <Array as="points">
              <mxPoint x="90" y="80" />
            </Array>
          </mxGeometry>
        </mxCell>
        <mxCell id="EsK8FO15ryKcE3pmCF22-45" value="Possible Bugs / Fixes" style="rounded=1;whiteSpace=wrap;html=1;" parent="JWAQEmHxJwl-mEr6tWKa-33" vertex="1">
          <mxGeometry x="40" y="120" width="120" height="40" as="geometry" />
        </mxCell>
        <mxCell id="EsK8FO15ryKcE3pmCF22-49" style="edgeStyle=orthogonalEdgeStyle;rounded=0;orthogonalLoop=1;jettySize=auto;html=1;fillColor=#0050ef;strokeColor=#001DBC;" parent="JWAQEmHxJwl-mEr6tWKa-33" source="EsK8FO15ryKcE3pmCF22-45" edge="1">
          <mxGeometry relative="1" as="geometry">
            <mxPoint x="90" y="40" as="targetPoint" />
            <Array as="points">
              <mxPoint x="90" y="40" />
            </Array>
          </mxGeometry>
        </mxCell>
        <mxCell id="EsK8FO15ryKcE3pmCF22-62" value="PR against Staging" style="rounded=0;whiteSpace=wrap;html=1;fontSize=8;" parent="JWAQEmHxJwl-mEr6tWKa-33" vertex="1">
          <mxGeometry y="60" width="50" height="40" as="geometry" />
        </mxCell>
        <mxCell id="EsK8FO15ryKcE3pmCF22-63" value="Create a branch for any possible bugs or fixes" style="rounded=0;whiteSpace=wrap;html=1;fontSize=8;" parent="JWAQEmHxJwl-mEr6tWKa-33" vertex="1">
          <mxGeometry x="150" y="60" width="50" height="40" as="geometry" />
        </mxCell>
        <mxCell id="JWAQEmHxJwl-mEr6tWKa-34" value="" style="group" parent="1" vertex="1" connectable="0">
          <mxGeometry x="320" y="400" width="200" height="160" as="geometry" />
        </mxCell>
        <mxCell id="EsK8FO15ryKcE3pmCF22-21" value="Develop" style="rounded=1;whiteSpace=wrap;html=1;" parent="JWAQEmHxJwl-mEr6tWKa-34" vertex="1">
          <mxGeometry x="40" width="120" height="40" as="geometry" />
        </mxCell>
        <mxCell id="EsK8FO15ryKcE3pmCF22-22" value="Features / Bugs" style="rounded=1;whiteSpace=wrap;html=1;" parent="JWAQEmHxJwl-mEr6tWKa-34" vertex="1">
          <mxGeometry x="40" y="120" width="120" height="40" as="geometry" />
        </mxCell>
        <mxCell id="EsK8FO15ryKcE3pmCF22-26" value="" style="endArrow=classic;html=1;rounded=0;entryX=0.25;entryY=0;entryDx=0;entryDy=0;fillColor=#d5e8d4;strokeColor=#82b366;" parent="JWAQEmHxJwl-mEr6tWKa-34" edge="1">
          <mxGeometry width="50" height="50" relative="1" as="geometry">
            <mxPoint x="110" y="40" as="sourcePoint" />
            <mxPoint x="110" y="120" as="targetPoint" />
          </mxGeometry>
        </mxCell>
        <mxCell id="EsK8FO15ryKcE3pmCF22-27" value="" style="endArrow=classic;html=1;rounded=0;entryX=0.75;entryY=1;entryDx=0;entryDy=0;fillColor=#0050ef;strokeColor=#001DBC;" parent="JWAQEmHxJwl-mEr6tWKa-34" edge="1">
          <mxGeometry width="50" height="50" relative="1" as="geometry">
            <mxPoint x="90" y="120" as="sourcePoint" />
            <mxPoint x="90" y="40" as="targetPoint" />
          </mxGeometry>
        </mxCell>
        <mxCell id="EsK8FO15ryKcE3pmCF22-57" style="edgeStyle=orthogonalEdgeStyle;rounded=0;orthogonalLoop=1;jettySize=auto;html=1;entryX=0;entryY=0.5;entryDx=0;entryDy=0;entryPerimeter=0;endArrow=none;startFill=0;fillColor=#d5e8d4;strokeColor=#82b366;" parent="JWAQEmHxJwl-mEr6tWKa-34" source="EsK8FO15ryKcE3pmCF22-21" edge="1">
          <mxGeometry relative="1" as="geometry">
            <mxPoint x="160" y="80" as="targetPoint" />
            <Array as="points">
              <mxPoint x="110" y="80" />
            </Array>
          </mxGeometry>
        </mxCell>
        <mxCell id="EsK8FO15ryKcE3pmCF22-60" value="PR against Develop" style="rounded=0;whiteSpace=wrap;html=1;fontSize=8;" parent="JWAQEmHxJwl-mEr6tWKa-34" vertex="1">
          <mxGeometry y="60" width="50" height="40" as="geometry" />
        </mxCell>
        <mxCell id="EsK8FO15ryKcE3pmCF22-61" value="Create a branch off develop" style="rounded=0;whiteSpace=wrap;html=1;fontSize=8;" parent="JWAQEmHxJwl-mEr6tWKa-34" vertex="1">
          <mxGeometry x="150" y="60" width="50" height="40" as="geometry" />
        </mxCell>
        <mxCell id="EsK8FO15ryKcE3pmCF22-56" style="edgeStyle=orthogonalEdgeStyle;rounded=0;orthogonalLoop=1;jettySize=auto;html=1;entryDx=0;entryDy=0;endArrow=none;startFill=0;fillColor=#0050ef;strokeColor=#001DBC;" parent="JWAQEmHxJwl-mEr6tWKa-34" source="EsK8FO15ryKcE3pmCF22-22" target="EsK8FO15ryKcE3pmCF22-60" edge="1">
          <mxGeometry relative="1" as="geometry">
            <mxPoint x="40" y="80" as="targetPoint" />
            <Array as="points">
              <mxPoint x="90" y="80" />
              <mxPoint y="80" />
            </Array>
          </mxGeometry>
        </mxCell>
        <mxCell id="JWAQEmHxJwl-mEr6tWKa-43" value="" style="curved=1;endArrow=classic;html=1;rounded=0;exitX=0;exitY=0.5;exitDx=0;exitDy=0;entryX=0;entryY=0.5;entryDx=0;entryDy=0;dashed=1;startArrow=classic;startFill=1;endFill=1;" parent="1" source="JWAQEmHxJwl-mEr6tWKa-23" target="JWAQEmHxJwl-mEr6tWKa-27" edge="1">
          <mxGeometry width="50" height="50" relative="1" as="geometry">
            <mxPoint y="600" as="sourcePoint" />
            <mxPoint x="50" y="550" as="targetPoint" />
            <Array as="points">
              <mxPoint x="40" y="620" />
              <mxPoint x="10" y="430" />
            </Array>
          </mxGeometry>
        </mxCell>
        <mxCell id="JWAQEmHxJwl-mEr6tWKa-52" value="On PR: Staging into Main" style="swimlane;whiteSpace=wrap;html=1;startSize=40;" parent="1" vertex="1">
          <mxGeometry x="1040" y="120" width="160" height="200" as="geometry" />
        </mxCell>
        <mxCell id="JWAQEmHxJwl-mEr6tWKa-53" value="Linting" style="text;strokeColor=none;fillColor=none;align=left;verticalAlign=middle;spacingLeft=4;spacingRight=4;overflow=hidden;points=[[0,0.5],[1,0.5]];portConstraint=eastwest;rotatable=0;whiteSpace=wrap;html=1;fontSize=8;" parent="JWAQEmHxJwl-mEr6tWKa-52" vertex="1">
          <mxGeometry y="40" width="140" height="30" as="geometry" />
        </mxCell>
        <mxCell id="JWAQEmHxJwl-mEr6tWKa-54" value="Tests" style="text;strokeColor=none;fillColor=none;align=left;verticalAlign=middle;spacingLeft=4;spacingRight=4;overflow=hidden;points=[[0,0.5],[1,0.5]];portConstraint=eastwest;rotatable=0;whiteSpace=wrap;html=1;fontSize=8;" parent="JWAQEmHxJwl-mEr6tWKa-52" vertex="1">
          <mxGeometry y="70" width="140" height="30" as="geometry" />
        </mxCell>
        <mxCell id="JWAQEmHxJwl-mEr6tWKa-55" value="Build" style="text;strokeColor=none;fillColor=none;align=left;verticalAlign=middle;spacingLeft=4;spacingRight=4;overflow=hidden;points=[[0,0.5],[1,0.5]];portConstraint=eastwest;rotatable=0;whiteSpace=wrap;html=1;fontSize=8;" parent="JWAQEmHxJwl-mEr6tWKa-52" vertex="1">
          <mxGeometry y="100" width="140" height="30" as="geometry" />
        </mxCell>
        <mxCell id="JWAQEmHxJwl-mEr6tWKa-56" value="SonarCloud?" style="text;strokeColor=none;fillColor=none;align=left;verticalAlign=middle;spacingLeft=4;spacingRight=4;overflow=hidden;points=[[0,0.5],[1,0.5]];portConstraint=eastwest;rotatable=0;whiteSpace=wrap;html=1;fontSize=8;" parent="JWAQEmHxJwl-mEr6tWKa-52" vertex="1">
          <mxGeometry y="130" width="140" height="30" as="geometry" />
        </mxCell>
        <mxCell id="JWAQEmHxJwl-mEr6tWKa-58" value="" style="endArrow=classic;startArrow=classic;html=1;rounded=0;exitX=-0.001;exitY=0.107;exitDx=0;exitDy=0;exitPerimeter=0;" parent="1" source="JWAQEmHxJwl-mEr6tWKa-52" edge="1">
          <mxGeometry width="50" height="50" relative="1" as="geometry">
            <mxPoint x="1060" y="80" as="sourcePoint" />
            <mxPoint x="950" y="230" as="targetPoint" />
          </mxGeometry>
        </mxCell>
        <mxCell id="JWAQEmHxJwl-mEr6tWKa-59" value="On Merge from Develop" style="swimlane;whiteSpace=wrap;html=1;" parent="1" vertex="1">
          <mxGeometry x="1160" y="480" width="160" height="160" as="geometry" />
        </mxCell>
        <mxCell id="JWAQEmHxJwl-mEr6tWKa-60" value="Build" style="text;strokeColor=none;fillColor=none;align=left;verticalAlign=middle;spacingLeft=4;spacingRight=4;overflow=hidden;points=[[0,0.5],[1,0.5]];portConstraint=eastwest;rotatable=0;whiteSpace=wrap;html=1;fontSize=8;" parent="JWAQEmHxJwl-mEr6tWKa-59" vertex="1">
          <mxGeometry y="60" width="140" height="30" as="geometry" />
        </mxCell>
        <mxCell id="JWAQEmHxJwl-mEr6tWKa-61" value="Internal Track" style="text;strokeColor=none;fillColor=none;align=left;verticalAlign=middle;spacingLeft=4;spacingRight=4;overflow=hidden;points=[[0,0.5],[1,0.5]];portConstraint=eastwest;rotatable=0;whiteSpace=wrap;html=1;fontSize=8;" parent="JWAQEmHxJwl-mEr6tWKa-59" vertex="1">
          <mxGeometry y="90" width="140" height="30" as="geometry" />
        </mxCell>
        <mxCell id="JWAQEmHxJwl-mEr6tWKa-63" value="Version Bump - Add RC + Build Nr" style="text;strokeColor=none;fillColor=none;align=left;verticalAlign=middle;spacingLeft=4;spacingRight=4;overflow=hidden;points=[[0,0.5],[1,0.5]];portConstraint=eastwest;rotatable=0;whiteSpace=wrap;html=1;fontSize=8;" parent="JWAQEmHxJwl-mEr6tWKa-59" vertex="1">
          <mxGeometry y="30" width="140" height="30" as="geometry" />
        </mxCell>
        <mxCell id="JWAQEmHxJwl-mEr6tWKa-62" value="" style="endArrow=classic;startArrow=classic;html=1;rounded=0;entryX=0;entryY=0;entryDx=0;entryDy=0;exitX=1;exitY=0.5;exitDx=0;exitDy=0;" parent="1" source="EsK8FO15ryKcE3pmCF22-24" target="JWAQEmHxJwl-mEr6tWKa-59" edge="1">
          <mxGeometry width="50" height="50" relative="1" as="geometry">
            <mxPoint x="1450" y="610" as="sourcePoint" />
            <mxPoint x="1450" y="625" as="targetPoint" />
          </mxGeometry>
        </mxCell>
        <mxCell id="JWAQEmHxJwl-mEr6tWKa-69" value="" style="edgeStyle=orthogonalEdgeStyle;rounded=0;orthogonalLoop=1;jettySize=auto;html=1;exitX=0.5;exitY=1;exitDx=0;exitDy=0;" parent="1" source="JWAQEmHxJwl-mEr6tWKa-65" target="JWAQEmHxJwl-mEr6tWKa-68" edge="1">
          <mxGeometry relative="1" as="geometry" />
        </mxCell>
        <mxCell id="JWAQEmHxJwl-mEr6tWKa-78" value="On PR" style="edgeLabel;html=1;align=center;verticalAlign=middle;resizable=0;points=[];" parent="JWAQEmHxJwl-mEr6tWKa-69" vertex="1" connectable="0">
          <mxGeometry x="0.0322" y="-3" relative="1" as="geometry">
            <mxPoint x="-8" y="-3" as="offset" />
          </mxGeometry>
        </mxCell>
        <mxCell id="JWAQEmHxJwl-mEr6tWKa-72" style="edgeStyle=orthogonalEdgeStyle;rounded=0;orthogonalLoop=1;jettySize=auto;html=1;exitX=0.5;exitY=1;exitDx=0;exitDy=0;entryX=0.5;entryY=0;entryDx=0;entryDy=0;" parent="1" source="JWAQEmHxJwl-mEr6tWKa-65" target="JWAQEmHxJwl-mEr6tWKa-75" edge="1">
          <mxGeometry relative="1" as="geometry">
            <mxPoint x="60" y="1120" as="targetPoint" />
            <mxPoint x="130" y="1120" as="sourcePoint" />
          </mxGeometry>
        </mxCell>
        <mxCell id="JWAQEmHxJwl-mEr6tWKa-73" value="On PR" style="edgeLabel;html=1;align=center;verticalAlign=middle;resizable=0;points=[];" parent="JWAQEmHxJwl-mEr6tWKa-72" vertex="1" connectable="0">
          <mxGeometry x="0.1092" y="1" relative="1" as="geometry">
            <mxPoint as="offset" />
          </mxGeometry>
        </mxCell>
        <mxCell id="JWAQEmHxJwl-mEr6tWKa-90" style="edgeStyle=orthogonalEdgeStyle;rounded=0;orthogonalLoop=1;jettySize=auto;html=1;entryX=0;entryY=0.5;entryDx=0;entryDy=0;" parent="1" source="JWAQEmHxJwl-mEr6tWKa-65" target="JWAQEmHxJwl-mEr6tWKa-89" edge="1">
          <mxGeometry relative="1" as="geometry" />
        </mxCell>
        <mxCell id="JWAQEmHxJwl-mEr6tWKa-91" value="After 3 features&lt;div&gt;and 4 bugs&lt;/div&gt;" style="edgeLabel;html=1;align=center;verticalAlign=middle;resizable=0;points=[];" parent="JWAQEmHxJwl-mEr6tWKa-90" vertex="1" connectable="0">
          <mxGeometry x="0.0334" y="-3" relative="1" as="geometry">
            <mxPoint as="offset" />
          </mxGeometry>
        </mxCell>
        <mxCell id="JWAQEmHxJwl-mEr6tWKa-65" value="Develop: 0.3.0+200" style="rounded=1;whiteSpace=wrap;html=1;" parent="1" vertex="1">
          <mxGeometry x="150" y="1060" width="120" height="60" as="geometry" />
        </mxCell>
        <mxCell id="JWAQEmHxJwl-mEr6tWKa-147" style="edgeStyle=orthogonalEdgeStyle;rounded=0;orthogonalLoop=1;jettySize=auto;html=1;entryX=0.5;entryY=1;entryDx=0;entryDy=0;exitX=0.5;exitY=1;exitDx=0;exitDy=0;dashed=1;" parent="1" source="JWAQEmHxJwl-mEr6tWKa-66" target="JWAQEmHxJwl-mEr6tWKa-89" edge="1">
          <mxGeometry relative="1" as="geometry">
            <mxPoint x="170" y="1430" as="sourcePoint" />
            <mxPoint x="410" y="1060" as="targetPoint" />
          </mxGeometry>
        </mxCell>
        <mxCell id="JWAQEmHxJwl-mEr6tWKa-66" value="Feature: 0.4.0+206" style="rhombus;whiteSpace=wrap;html=1;rounded=1;" parent="1" vertex="1">
          <mxGeometry x="90" y="1330" width="80" height="80" as="geometry" />
        </mxCell>
        <mxCell id="JWAQEmHxJwl-mEr6tWKa-80" style="edgeStyle=orthogonalEdgeStyle;rounded=0;orthogonalLoop=1;jettySize=auto;html=1;entryX=0.5;entryY=0;entryDx=0;entryDy=0;" parent="1" source="JWAQEmHxJwl-mEr6tWKa-68" target="JWAQEmHxJwl-mEr6tWKa-79" edge="1">
          <mxGeometry relative="1" as="geometry" />
        </mxCell>
        <mxCell id="JWAQEmHxJwl-mEr6tWKa-82" value="On Merge after 2 builds" style="edgeLabel;html=1;align=center;verticalAlign=middle;resizable=0;points=[];" parent="JWAQEmHxJwl-mEr6tWKa-80" vertex="1" connectable="0">
          <mxGeometry x="-0.2402" y="2" relative="1" as="geometry">
            <mxPoint x="-2" y="7" as="offset" />
          </mxGeometry>
        </mxCell>
        <mxCell id="JWAQEmHxJwl-mEr6tWKa-68" value="Bugs: 0.3.0+201" style="rhombus;whiteSpace=wrap;html=1;rounded=1;" parent="1" vertex="1">
          <mxGeometry x="300" y="1190" width="80" height="80" as="geometry" />
        </mxCell>
        <mxCell id="JWAQEmHxJwl-mEr6tWKa-76" style="edgeStyle=orthogonalEdgeStyle;rounded=0;orthogonalLoop=1;jettySize=auto;html=1;entryX=0.5;entryY=0;entryDx=0;entryDy=0;exitX=0.5;exitY=1;exitDx=0;exitDy=0;" parent="1" source="JWAQEmHxJwl-mEr6tWKa-75" target="JWAQEmHxJwl-mEr6tWKa-66" edge="1">
          <mxGeometry relative="1" as="geometry" />
        </mxCell>
        <mxCell id="JWAQEmHxJwl-mEr6tWKa-77" value="On Merge after 5 builds" style="edgeLabel;html=1;align=center;verticalAlign=middle;resizable=0;points=[];" parent="JWAQEmHxJwl-mEr6tWKa-76" vertex="1" connectable="0">
          <mxGeometry x="-0.1943" y="3" relative="1" as="geometry">
            <mxPoint x="-3" y="6" as="offset" />
          </mxGeometry>
        </mxCell>
        <mxCell id="JWAQEmHxJwl-mEr6tWKa-75" value="Feature: 0.3.0+201" style="rhombus;whiteSpace=wrap;html=1;rounded=1;" parent="1" vertex="1">
          <mxGeometry x="90" y="1190" width="80" height="80" as="geometry" />
        </mxCell>
        <mxCell id="JWAQEmHxJwl-mEr6tWKa-148" style="edgeStyle=orthogonalEdgeStyle;rounded=0;orthogonalLoop=1;jettySize=auto;html=1;entryX=0.5;entryY=1;entryDx=0;entryDy=0;exitX=0.5;exitY=1;exitDx=0;exitDy=0;dashed=1;" parent="1" source="JWAQEmHxJwl-mEr6tWKa-79" target="JWAQEmHxJwl-mEr6tWKa-89" edge="1">
          <mxGeometry relative="1" as="geometry" />
        </mxCell>
        <mxCell id="JWAQEmHxJwl-mEr6tWKa-79" value="Bugs: 0.3.1+203" style="rhombus;whiteSpace=wrap;html=1;rounded=1;" parent="1" vertex="1">
          <mxGeometry x="300" y="1330" width="80" height="80" as="geometry" />
        </mxCell>
        <mxCell id="JWAQEmHxJwl-mEr6tWKa-135" style="edgeStyle=orthogonalEdgeStyle;rounded=0;orthogonalLoop=1;jettySize=auto;html=1;entryX=0;entryY=0.5;entryDx=0;entryDy=0;endArrow=none;startFill=0;dashed=1;exitX=1;exitY=0.5;exitDx=0;exitDy=0;" parent="1" source="JWAQEmHxJwl-mEr6tWKa-87" target="JWAQEmHxJwl-mEr6tWKa-131" edge="1">
          <mxGeometry relative="1" as="geometry">
            <mxPoint x="800" y="1140" as="sourcePoint" />
          </mxGeometry>
        </mxCell>
        <mxCell id="JWAQEmHxJwl-mEr6tWKa-87" value="Staging: &lt;span style=&quot;background-color: transparent; color: light-dark(rgb(0, 0, 0), rgb(255, 255, 255));&quot;&gt;0.6.4-RC+214&lt;/span&gt;" style="rounded=1;whiteSpace=wrap;html=1;" parent="1" vertex="1">
          <mxGeometry x="550" y="1060" width="120" height="60" as="geometry" />
        </mxCell>
        <mxCell id="JWAQEmHxJwl-mEr6tWKa-92" style="edgeStyle=orthogonalEdgeStyle;rounded=0;orthogonalLoop=1;jettySize=auto;html=1;entryX=0;entryY=0.5;entryDx=0;entryDy=0;" parent="1" source="JWAQEmHxJwl-mEr6tWKa-89" target="JWAQEmHxJwl-mEr6tWKa-87" edge="1">
          <mxGeometry relative="1" as="geometry" />
        </mxCell>
        <mxCell id="JWAQEmHxJwl-mEr6tWKa-93" value="On Push" style="edgeLabel;html=1;align=center;verticalAlign=middle;resizable=0;points=[];" parent="JWAQEmHxJwl-mEr6tWKa-92" vertex="1" connectable="0">
          <mxGeometry x="-0.2281" y="3" relative="1" as="geometry">
            <mxPoint y="19" as="offset" />
          </mxGeometry>
        </mxCell>
        <mxCell id="JWAQEmHxJwl-mEr6tWKa-89" value="Develop: 0.6.4+213" style="rounded=1;whiteSpace=wrap;html=1;" parent="1" vertex="1">
          <mxGeometry x="350" y="940" width="120" height="60" as="geometry" />
        </mxCell>
        <mxCell id="JWAQEmHxJwl-mEr6tWKa-124" value="" style="edgeStyle=orthogonalEdgeStyle;rounded=0;orthogonalLoop=1;jettySize=auto;html=1;exitX=0.5;exitY=1;exitDx=0;exitDy=0;" parent="1" source="JWAQEmHxJwl-mEr6tWKa-87" target="JWAQEmHxJwl-mEr6tWKa-128" edge="1">
          <mxGeometry relative="1" as="geometry">
            <mxPoint x="620" y="1170" as="sourcePoint" />
          </mxGeometry>
        </mxCell>
        <mxCell id="JWAQEmHxJwl-mEr6tWKa-125" value="On PR" style="edgeLabel;html=1;align=center;verticalAlign=middle;resizable=0;points=[];" parent="JWAQEmHxJwl-mEr6tWKa-124" vertex="1" connectable="0">
          <mxGeometry x="0.0322" y="-3" relative="1" as="geometry">
            <mxPoint x="3" y="3" as="offset" />
          </mxGeometry>
        </mxCell>
        <mxCell id="JWAQEmHxJwl-mEr6tWKa-128" value="Patch: 0.6.4-RC+215" style="rhombus;whiteSpace=wrap;html=1;rounded=1;" parent="1" vertex="1">
          <mxGeometry x="560" y="1180" width="100" height="100" as="geometry" />
        </mxCell>
        <mxCell id="JWAQEmHxJwl-mEr6tWKa-132" style="edgeStyle=orthogonalEdgeStyle;rounded=0;orthogonalLoop=1;jettySize=auto;html=1;entryX=0.5;entryY=1;entryDx=0;entryDy=0;exitX=1;exitY=0.5;exitDx=0;exitDy=0;" parent="1" source="JWAQEmHxJwl-mEr6tWKa-128" target="JWAQEmHxJwl-mEr6tWKa-131" edge="1">
          <mxGeometry relative="1" as="geometry">
            <mxPoint x="890" y="1220" as="sourcePoint" />
          </mxGeometry>
        </mxCell>
        <mxCell id="JWAQEmHxJwl-mEr6tWKa-133" value="On Merge after 2 builds" style="edgeLabel;html=1;align=center;verticalAlign=middle;resizable=0;points=[];" parent="JWAQEmHxJwl-mEr6tWKa-132" vertex="1" connectable="0">
          <mxGeometry x="-0.1662" y="-2" relative="1" as="geometry">
            <mxPoint x="34" y="-62" as="offset" />
          </mxGeometry>
        </mxCell>
        <mxCell id="JWAQEmHxJwl-mEr6tWKa-138" style="edgeStyle=orthogonalEdgeStyle;rounded=0;orthogonalLoop=1;jettySize=auto;html=1;entryX=0;entryY=0.5;entryDx=0;entryDy=0;" parent="1" source="JWAQEmHxJwl-mEr6tWKa-131" target="JWAQEmHxJwl-mEr6tWKa-137" edge="1">
          <mxGeometry relative="1" as="geometry" />
        </mxCell>
        <mxCell id="JWAQEmHxJwl-mEr6tWKa-140" value="On PR" style="edgeLabel;html=1;align=center;verticalAlign=middle;resizable=0;points=[];" parent="JWAQEmHxJwl-mEr6tWKa-138" vertex="1" connectable="0">
          <mxGeometry x="0.1511" relative="1" as="geometry">
            <mxPoint as="offset" />
          </mxGeometry>
        </mxCell>
        <mxCell id="JWAQEmHxJwl-mEr6tWKa-131" value="Staging: &lt;span style=&quot;background-color: transparent; color: light-dark(rgb(0, 0, 0), rgb(255, 255, 255));&quot;&gt;0.6.5-RC+217&lt;/span&gt;" style="rounded=1;whiteSpace=wrap;html=1;" parent="1" vertex="1">
          <mxGeometry x="737" y="1060" width="120" height="60" as="geometry" />
        </mxCell>
        <mxCell id="JWAQEmHxJwl-mEr6tWKa-142" style="edgeStyle=orthogonalEdgeStyle;rounded=0;orthogonalLoop=1;jettySize=auto;html=1;entryX=1;entryY=0.5;entryDx=0;entryDy=0;startArrow=classic;startFill=1;exitX=1;exitY=0.5;exitDx=0;exitDy=0;" parent="1" source="JWAQEmHxJwl-mEr6tWKa-137" target="JWAQEmHxJwl-mEr6tWKa-141" edge="1">
          <mxGeometry relative="1" as="geometry">
            <mxPoint x="1190" y="1030" as="sourcePoint" />
          </mxGeometry>
        </mxCell>
        <mxCell id="JWAQEmHxJwl-mEr6tWKa-143" value="On Push" style="edgeLabel;html=1;align=center;verticalAlign=middle;resizable=0;points=[];" parent="JWAQEmHxJwl-mEr6tWKa-142" vertex="1" connectable="0">
          <mxGeometry x="-0.0877" y="-2" relative="1" as="geometry">
            <mxPoint y="-8" as="offset" />
          </mxGeometry>
        </mxCell>
        <mxCell id="JWAQEmHxJwl-mEr6tWKa-137" value="Main" style="rounded=1;whiteSpace=wrap;html=1;" parent="1" vertex="1">
          <mxGeometry x="910" y="940" width="120" height="60" as="geometry" />
        </mxCell>
        <mxCell id="JWAQEmHxJwl-mEr6tWKa-144" style="edgeStyle=orthogonalEdgeStyle;rounded=0;orthogonalLoop=1;jettySize=auto;html=1;entryX=0.5;entryY=0;entryDx=0;entryDy=0;" parent="1" source="JWAQEmHxJwl-mEr6tWKa-141" target="JWAQEmHxJwl-mEr6tWKa-65" edge="1">
          <mxGeometry relative="1" as="geometry" />
        </mxCell>
        <mxCell id="JWAQEmHxJwl-mEr6tWKa-146" value="On Merge" style="edgeLabel;html=1;align=center;verticalAlign=middle;resizable=0;points=[];" parent="JWAQEmHxJwl-mEr6tWKa-144" vertex="1" connectable="0">
          <mxGeometry x="-0.1388" relative="1" as="geometry">
            <mxPoint as="offset" />
          </mxGeometry>
        </mxCell>
        <mxCell id="JWAQEmHxJwl-mEr6tWKa-141" value="Main: 1.6.5+218" style="rounded=1;whiteSpace=wrap;html=1;" parent="1" vertex="1">
          <mxGeometry x="630" y="860" width="120" height="60" as="geometry" />
        </mxCell>
        <mxCell id="JWAQEmHxJwl-mEr6tWKa-150" style="edgeStyle=orthogonalEdgeStyle;rounded=0;orthogonalLoop=1;jettySize=auto;html=1;entryX=0;entryY=0.5;entryDx=0;entryDy=0;" parent="1" source="JWAQEmHxJwl-mEr6tWKa-149" target="JWAQEmHxJwl-mEr6tWKa-65" edge="1">
          <mxGeometry relative="1" as="geometry" />
        </mxCell>
        <mxCell id="JWAQEmHxJwl-mEr6tWKa-149" value="Start" style="ellipse;whiteSpace=wrap;html=1;aspect=fixed;fillColor=#d5e8d4;strokeColor=#82b366;gradientColor=#97d077;" parent="1" vertex="1">
          <mxGeometry x="30" y="1060" width="60" height="60" as="geometry" />
        </mxCell>
        <mxCell id="QbTUfAHfLigSghjIeHCX-6" value="" style="edgeStyle=none;curved=1;rounded=0;orthogonalLoop=1;jettySize=auto;html=1;fontSize=12;startSize=8;endSize=8;" edge="1" parent="1" source="QbTUfAHfLigSghjIeHCX-4" target="QbTUfAHfLigSghjIeHCX-5">
          <mxGeometry relative="1" as="geometry" />
        </mxCell>
        <mxCell id="QbTUfAHfLigSghjIeHCX-7" value="Bug" style="edgeLabel;html=1;align=center;verticalAlign=middle;resizable=0;points=[];fontSize=12;" vertex="1" connectable="0" parent="QbTUfAHfLigSghjIeHCX-6">
          <mxGeometry x="0.0304" y="-1" relative="1" as="geometry">
            <mxPoint as="offset" />
          </mxGeometry>
        </mxCell>
        <mxCell id="QbTUfAHfLigSghjIeHCX-4" value="Develop: 0.3.0+200" style="rounded=1;whiteSpace=wrap;html=1;" vertex="1" parent="1">
          <mxGeometry x="1280" y="920" width="120" height="60" as="geometry" />
        </mxCell>
        <mxCell id="QbTUfAHfLigSghjIeHCX-9" value="" style="edgeStyle=none;curved=1;rounded=0;orthogonalLoop=1;jettySize=auto;html=1;fontSize=12;startSize=8;endSize=8;" edge="1" parent="1" source="QbTUfAHfLigSghjIeHCX-5" target="QbTUfAHfLigSghjIeHCX-8">
          <mxGeometry relative="1" as="geometry" />
        </mxCell>
        <mxCell id="QbTUfAHfLigSghjIeHCX-10" value="Bug" style="edgeLabel;html=1;align=center;verticalAlign=middle;resizable=0;points=[];fontSize=12;" vertex="1" connectable="0" parent="QbTUfAHfLigSghjIeHCX-9">
          <mxGeometry x="-0.0565" relative="1" as="geometry">
            <mxPoint as="offset" />
          </mxGeometry>
        </mxCell>
        <mxCell id="QbTUfAHfLigSghjIeHCX-5" value="0.3.1+201" style="rhombus;whiteSpace=wrap;html=1;rounded=1;" vertex="1" parent="1">
          <mxGeometry x="1300" y="1060" width="80" height="80" as="geometry" />
        </mxCell>
        <mxCell id="QbTUfAHfLigSghjIeHCX-12" value="" style="edgeStyle=none;curved=1;rounded=0;orthogonalLoop=1;jettySize=auto;html=1;fontSize=12;startSize=8;endSize=8;" edge="1" parent="1" source="QbTUfAHfLigSghjIeHCX-8" target="QbTUfAHfLigSghjIeHCX-11">
          <mxGeometry relative="1" as="geometry" />
        </mxCell>
        <mxCell id="QbTUfAHfLigSghjIeHCX-14" value="5 More Bugs" style="edgeLabel;html=1;align=center;verticalAlign=middle;resizable=0;points=[];fontSize=12;" vertex="1" connectable="0" parent="QbTUfAHfLigSghjIeHCX-12">
          <mxGeometry x="-0.1652" y="-3" relative="1" as="geometry">
            <mxPoint as="offset" />
          </mxGeometry>
        </mxCell>
        <mxCell id="QbTUfAHfLigSghjIeHCX-8" value="0.3.2+202" style="rhombus;whiteSpace=wrap;html=1;rounded=1;" vertex="1" parent="1">
          <mxGeometry x="1300" y="1220" width="80" height="80" as="geometry" />
        </mxCell>
        <mxCell id="QbTUfAHfLigSghjIeHCX-16" style="edgeStyle=orthogonalEdgeStyle;rounded=0;orthogonalLoop=1;jettySize=auto;html=1;entryX=0;entryY=0.5;entryDx=0;entryDy=0;fontSize=12;startSize=8;endSize=8;dashed=1;" edge="1" parent="1" source="QbTUfAHfLigSghjIeHCX-11" target="QbTUfAHfLigSghjIeHCX-15">
          <mxGeometry relative="1" as="geometry" />
        </mxCell>
        <mxCell id="QbTUfAHfLigSghjIeHCX-11" value="0.3.7+207" style="rhombus;whiteSpace=wrap;html=1;rounded=1;" vertex="1" parent="1">
          <mxGeometry x="1300" y="1380" width="80" height="80" as="geometry" />
        </mxCell>
        <mxCell id="QbTUfAHfLigSghjIeHCX-27" style="edgeStyle=none;curved=1;rounded=0;orthogonalLoop=1;jettySize=auto;html=1;fontSize=12;startSize=8;endSize=8;" edge="1" parent="1" source="QbTUfAHfLigSghjIeHCX-15" target="QbTUfAHfLigSghjIeHCX-21">
          <mxGeometry relative="1" as="geometry" />
        </mxCell>
        <mxCell id="QbTUfAHfLigSghjIeHCX-28" value="Feature" style="edgeLabel;html=1;align=center;verticalAlign=middle;resizable=0;points=[];fontSize=12;" vertex="1" connectable="0" parent="QbTUfAHfLigSghjIeHCX-27">
          <mxGeometry x="-0.0348" y="-2" relative="1" as="geometry">
            <mxPoint as="offset" />
          </mxGeometry>
        </mxCell>
        <mxCell id="QbTUfAHfLigSghjIeHCX-15" value="Develop: 0.3.7+207" style="rounded=1;whiteSpace=wrap;html=1;" vertex="1" parent="1">
          <mxGeometry x="1480" y="920" width="120" height="60" as="geometry" />
        </mxCell>
        <mxCell id="QbTUfAHfLigSghjIeHCX-19" value="" style="edgeStyle=none;curved=1;rounded=0;orthogonalLoop=1;jettySize=auto;html=1;fontSize=12;startSize=8;endSize=8;" edge="1" parent="1" source="QbTUfAHfLigSghjIeHCX-21" target="QbTUfAHfLigSghjIeHCX-24">
          <mxGeometry relative="1" as="geometry" />
        </mxCell>
        <mxCell id="QbTUfAHfLigSghjIeHCX-20" value="2 Bugs" style="edgeLabel;html=1;align=center;verticalAlign=middle;resizable=0;points=[];fontSize=12;" vertex="1" connectable="0" parent="QbTUfAHfLigSghjIeHCX-19">
          <mxGeometry x="-0.0565" relative="1" as="geometry">
            <mxPoint as="offset" />
          </mxGeometry>
        </mxCell>
        <mxCell id="QbTUfAHfLigSghjIeHCX-21" value="0.4.0+208" style="rhombus;whiteSpace=wrap;html=1;rounded=1;" vertex="1" parent="1">
          <mxGeometry x="1500" y="1060" width="80" height="80" as="geometry" />
        </mxCell>
        <mxCell id="QbTUfAHfLigSghjIeHCX-22" value="" style="edgeStyle=none;curved=1;rounded=0;orthogonalLoop=1;jettySize=auto;html=1;fontSize=12;startSize=8;endSize=8;" edge="1" parent="1" source="QbTUfAHfLigSghjIeHCX-24" target="QbTUfAHfLigSghjIeHCX-25">
          <mxGeometry relative="1" as="geometry" />
        </mxCell>
        <mxCell id="QbTUfAHfLigSghjIeHCX-30" value="Feature" style="edgeLabel;html=1;align=center;verticalAlign=middle;resizable=0;points=[];fontSize=12;" vertex="1" connectable="0" parent="QbTUfAHfLigSghjIeHCX-22">
          <mxGeometry x="-0.0992" y="-2" relative="1" as="geometry">
            <mxPoint as="offset" />
          </mxGeometry>
        </mxCell>
        <mxCell id="QbTUfAHfLigSghjIeHCX-24" value="0.4.2+210" style="rhombus;whiteSpace=wrap;html=1;rounded=1;" vertex="1" parent="1">
          <mxGeometry x="1500" y="1220" width="80" height="80" as="geometry" />
        </mxCell>
        <mxCell id="QbTUfAHfLigSghjIeHCX-32" style="edgeStyle=orthogonalEdgeStyle;rounded=0;orthogonalLoop=1;jettySize=auto;html=1;entryX=0;entryY=0.5;entryDx=0;entryDy=0;fontSize=12;startSize=8;endSize=8;dashed=1;" edge="1" parent="1" source="QbTUfAHfLigSghjIeHCX-25" target="QbTUfAHfLigSghjIeHCX-31">
          <mxGeometry relative="1" as="geometry" />
        </mxCell>
        <mxCell id="QbTUfAHfLigSghjIeHCX-25" value="0.5.0+211" style="rhombus;whiteSpace=wrap;html=1;rounded=1;" vertex="1" parent="1">
          <mxGeometry x="1500" y="1380" width="80" height="80" as="geometry" />
        </mxCell>
        <mxCell id="QbTUfAHfLigSghjIeHCX-31" value="Staging: 0.5.0-RC+212" style="rounded=1;whiteSpace=wrap;html=1;" vertex="1" parent="1">
          <mxGeometry x="1680" y="920" width="120" height="60" as="geometry" />
        </mxCell>
        <mxCell id="QbTUfAHfLigSghjIeHCX-42" style="edgeStyle=none;curved=1;rounded=0;orthogonalLoop=1;jettySize=auto;html=1;fontSize=12;startSize=8;endSize=8;exitX=0.5;exitY=1;exitDx=0;exitDy=0;" edge="1" parent="1" target="QbTUfAHfLigSghjIeHCX-46" source="QbTUfAHfLigSghjIeHCX-31">
          <mxGeometry relative="1" as="geometry">
            <mxPoint x="1740" y="1060" as="sourcePoint" />
          </mxGeometry>
        </mxCell>
        <mxCell id="QbTUfAHfLigSghjIeHCX-43" value="Fix" style="edgeLabel;html=1;align=center;verticalAlign=middle;resizable=0;points=[];fontSize=12;" vertex="1" connectable="0" parent="QbTUfAHfLigSghjIeHCX-42">
          <mxGeometry x="-0.0348" y="-2" relative="1" as="geometry">
            <mxPoint as="offset" />
          </mxGeometry>
        </mxCell>
        <mxCell id="QbTUfAHfLigSghjIeHCX-44" value="" style="edgeStyle=none;curved=1;rounded=0;orthogonalLoop=1;jettySize=auto;html=1;fontSize=12;startSize=8;endSize=8;" edge="1" parent="1" source="QbTUfAHfLigSghjIeHCX-46" target="QbTUfAHfLigSghjIeHCX-49">
          <mxGeometry relative="1" as="geometry" />
        </mxCell>
        <mxCell id="QbTUfAHfLigSghjIeHCX-45" value="Fix" style="edgeLabel;html=1;align=center;verticalAlign=middle;resizable=0;points=[];fontSize=12;" vertex="1" connectable="0" parent="QbTUfAHfLigSghjIeHCX-44">
          <mxGeometry x="-0.0565" relative="1" as="geometry">
            <mxPoint as="offset" />
          </mxGeometry>
        </mxCell>
        <mxCell id="QbTUfAHfLigSghjIeHCX-46" value="0.5.1-&lt;div&gt;RC+213&lt;/div&gt;" style="rhombus;whiteSpace=wrap;html=1;rounded=1;" vertex="1" parent="1">
          <mxGeometry x="1700" y="1060" width="80" height="80" as="geometry" />
        </mxCell>
        <mxCell id="QbTUfAHfLigSghjIeHCX-52" style="edgeStyle=orthogonalEdgeStyle;rounded=0;orthogonalLoop=1;jettySize=auto;html=1;entryX=0;entryY=0.5;entryDx=0;entryDy=0;fontSize=12;startSize=8;endSize=8;dashed=1;" edge="1" parent="1" source="QbTUfAHfLigSghjIeHCX-49" target="QbTUfAHfLigSghjIeHCX-51">
          <mxGeometry relative="1" as="geometry" />
        </mxCell>
        <mxCell id="QbTUfAHfLigSghjIeHCX-49" value="0.5.2&lt;span style=&quot;background-color: transparent; color: light-dark(rgb(0, 0, 0), rgb(255, 255, 255));&quot;&gt;-&lt;/span&gt;&lt;div&gt;&lt;span style=&quot;background-color: transparent; color: light-dark(rgb(0, 0, 0), rgb(255, 255, 255));&quot;&gt;RC+214&lt;/span&gt;&lt;/div&gt;" style="rhombus;whiteSpace=wrap;html=1;rounded=1;" vertex="1" parent="1">
          <mxGeometry x="1700" y="1220" width="80" height="80" as="geometry" />
        </mxCell>
        <mxCell id="QbTUfAHfLigSghjIeHCX-53" style="edgeStyle=orthogonalEdgeStyle;rounded=0;orthogonalLoop=1;jettySize=auto;html=1;entryX=0.5;entryY=0;entryDx=0;entryDy=0;fontSize=12;startSize=8;endSize=8;exitX=1;exitY=0.5;exitDx=0;exitDy=0;" edge="1" parent="1" source="QbTUfAHfLigSghjIeHCX-51" target="QbTUfAHfLigSghjIeHCX-4">
          <mxGeometry relative="1" as="geometry">
            <Array as="points">
              <mxPoint x="2020" y="950" />
              <mxPoint x="2020" y="880" />
              <mxPoint x="1340" y="880" />
            </Array>
          </mxGeometry>
        </mxCell>
        <mxCell id="QbTUfAHfLigSghjIeHCX-51" value="Main: 1.0.0+215" style="rounded=1;whiteSpace=wrap;html=1;" vertex="1" parent="1">
          <mxGeometry x="1880" y="920" width="120" height="60" as="geometry" />
        </mxCell>
        <mxCell id="QbTUfAHfLigSghjIeHCX-55" style="edgeStyle=none;curved=1;rounded=0;orthogonalLoop=1;jettySize=auto;html=1;entryX=0;entryY=0.5;entryDx=0;entryDy=0;fontSize=12;startSize=8;endSize=8;" edge="1" parent="1" source="QbTUfAHfLigSghjIeHCX-54" target="QbTUfAHfLigSghjIeHCX-4">
          <mxGeometry relative="1" as="geometry" />
        </mxCell>
        <mxCell id="QbTUfAHfLigSghjIeHCX-54" value="Start" style="ellipse;whiteSpace=wrap;html=1;aspect=fixed;fillColor=#d5e8d4;gradientColor=#97d077;strokeColor=#82b366;" vertex="1" parent="1">
          <mxGeometry x="1181" y="920" width="60" height="60" as="geometry" />
        </mxCell>
        <mxCell id="QbTUfAHfLigSghjIeHCX-59" value="Version Bumps" style="swimlane;whiteSpace=wrap;html=1;" vertex="1" parent="1">
          <mxGeometry x="1160" y="820" width="880" height="660" as="geometry" />
        </mxCell>
        <mxCell id="QbTUfAHfLigSghjIeHCX-60" value="Semantic Labels" style="swimlane;whiteSpace=wrap;html=1;" vertex="1" parent="1">
          <mxGeometry y="820" width="1080" height="660" as="geometry" />
        </mxCell>
        <mxCell id="QbTUfAHfLigSghjIeHCX-67" value="" style="group" vertex="1" connectable="0" parent="1">
          <mxGeometry x="820" y="-50" width="300" height="120" as="geometry" />
        </mxCell>
        <mxCell id="JWAQEmHxJwl-mEr6tWKa-44" value="Test Tracks" style="swimlane;fontStyle=0;childLayout=stackLayout;horizontal=1;startSize=30;horizontalStack=0;resizeParent=1;resizeParentMax=0;resizeLast=0;collapsible=1;marginBottom=0;whiteSpace=wrap;html=1;" parent="QbTUfAHfLigSghjIeHCX-67" vertex="1">
          <mxGeometry width="140" height="120" as="geometry" />
        </mxCell>
        <mxCell id="JWAQEmHxJwl-mEr6tWKa-45" value="Internal Track" style="text;strokeColor=none;fillColor=none;align=left;verticalAlign=middle;spacingLeft=4;spacingRight=4;overflow=hidden;points=[[0,0.5],[1,0.5]];portConstraint=eastwest;rotatable=0;whiteSpace=wrap;html=1;" parent="JWAQEmHxJwl-mEr6tWKa-44" vertex="1">
          <mxGeometry y="30" width="140" height="30" as="geometry" />
        </mxCell>
        <mxCell id="JWAQEmHxJwl-mEr6tWKa-46" value="Closed Track - Alpha" style="text;strokeColor=none;fillColor=none;align=left;verticalAlign=middle;spacingLeft=4;spacingRight=4;overflow=hidden;points=[[0,0.5],[1,0.5]];portConstraint=eastwest;rotatable=0;whiteSpace=wrap;html=1;" parent="JWAQEmHxJwl-mEr6tWKa-44" vertex="1">
          <mxGeometry y="60" width="140" height="30" as="geometry" />
        </mxCell>
        <mxCell id="JWAQEmHxJwl-mEr6tWKa-47" value="Open Track - Beta" style="text;strokeColor=none;fillColor=none;align=left;verticalAlign=middle;spacingLeft=4;spacingRight=4;overflow=hidden;points=[[0,0.5],[1,0.5]];portConstraint=eastwest;rotatable=0;whiteSpace=wrap;html=1;" parent="JWAQEmHxJwl-mEr6tWKa-44" vertex="1">
          <mxGeometry y="90" width="140" height="30" as="geometry" />
        </mxCell>
        <mxCell id="JWAQEmHxJwl-mEr6tWKa-48" value="Production Tracks" style="swimlane;fontStyle=0;childLayout=stackLayout;horizontal=1;startSize=30;horizontalStack=0;resizeParent=1;resizeParentMax=0;resizeLast=0;collapsible=1;marginBottom=0;whiteSpace=wrap;html=1;" parent="QbTUfAHfLigSghjIeHCX-67" vertex="1">
          <mxGeometry x="160" width="140" height="60" as="geometry" />
        </mxCell>
        <mxCell id="JWAQEmHxJwl-mEr6tWKa-49" value="Production" style="text;strokeColor=none;fillColor=none;align=left;verticalAlign=middle;spacingLeft=4;spacingRight=4;overflow=hidden;points=[[0,0.5],[1,0.5]];portConstraint=eastwest;rotatable=0;whiteSpace=wrap;html=1;" parent="JWAQEmHxJwl-mEr6tWKa-48" vertex="1">
          <mxGeometry y="30" width="140" height="30" as="geometry" />
        </mxCell>
      </root>
    </mxGraphModel>
  </diagram>
</mxfile>
